<mxfile host="app.diagrams.net" modified="2021-01-09T08:23:22.903Z" agent="5.0 (Windows NT 10.0; Win64; x64) AppleWebKit/537.36 (KHTML, like Gecko) Chrome/87.0.4280.141 Safari/537.36" etag="k6ryZDp2bN2rfz5DFBcb" version="14.1.8" type="github">
  <diagram id="FOpqYkeMEOg_6xQHcIqy" name="Page-1">
    <mxGraphModel dx="1038" dy="1749" grid="1" gridSize="10" guides="1" tooltips="1" connect="1" arrows="1" fold="1" page="1" pageScale="1" pageWidth="827" pageHeight="1169" math="0" shadow="0">
      <root>
        <mxCell id="0" />
        <mxCell id="1" parent="0" />
        <mxCell id="uOVFqiCUbd3LchdZvcdI-3" value="" style="edgeStyle=orthogonalEdgeStyle;rounded=0;orthogonalLoop=1;jettySize=auto;html=1;" parent="1" source="uOVFqiCUbd3LchdZvcdI-1" target="uOVFqiCUbd3LchdZvcdI-2" edge="1">
          <mxGeometry relative="1" as="geometry" />
        </mxCell>
        <mxCell id="uOVFqiCUbd3LchdZvcdI-6" value="" style="edgeStyle=orthogonalEdgeStyle;rounded=0;orthogonalLoop=1;jettySize=auto;html=1;" parent="1" source="uOVFqiCUbd3LchdZvcdI-1" target="uOVFqiCUbd3LchdZvcdI-5" edge="1">
          <mxGeometry relative="1" as="geometry" />
        </mxCell>
        <mxCell id="uOVFqiCUbd3LchdZvcdI-1" value="home.jsp" style="rounded=0;whiteSpace=wrap;html=1;" parent="1" vertex="1">
          <mxGeometry x="40" y="40" width="120" height="60" as="geometry" />
        </mxCell>
        <mxCell id="uOVFqiCUbd3LchdZvcdI-10" style="edgeStyle=orthogonalEdgeStyle;rounded=0;orthogonalLoop=1;jettySize=auto;html=1;entryX=1;entryY=0.5;entryDx=0;entryDy=0;" parent="1" source="uOVFqiCUbd3LchdZvcdI-2" target="uOVFqiCUbd3LchdZvcdI-5" edge="1">
          <mxGeometry relative="1" as="geometry" />
        </mxCell>
        <mxCell id="uOVFqiCUbd3LchdZvcdI-13" style="edgeStyle=orthogonalEdgeStyle;rounded=0;orthogonalLoop=1;jettySize=auto;html=1;entryX=0;entryY=0.5;entryDx=0;entryDy=0;" parent="1" source="uOVFqiCUbd3LchdZvcdI-2" target="uOVFqiCUbd3LchdZvcdI-12" edge="1">
          <mxGeometry relative="1" as="geometry" />
        </mxCell>
        <mxCell id="uOVFqiCUbd3LchdZvcdI-2" value="login.jsp" style="rounded=0;whiteSpace=wrap;html=1;" parent="1" vertex="1">
          <mxGeometry x="220" y="40" width="120" height="60" as="geometry" />
        </mxCell>
        <mxCell id="uOVFqiCUbd3LchdZvcdI-27" style="edgeStyle=orthogonalEdgeStyle;rounded=0;orthogonalLoop=1;jettySize=auto;html=1;" parent="1" source="uOVFqiCUbd3LchdZvcdI-5" target="uOVFqiCUbd3LchdZvcdI-26" edge="1">
          <mxGeometry relative="1" as="geometry" />
        </mxCell>
        <mxCell id="uOVFqiCUbd3LchdZvcdI-5" value="register.jsp" style="rounded=0;whiteSpace=wrap;html=1;" parent="1" vertex="1">
          <mxGeometry x="40" y="150" width="120" height="60" as="geometry" />
        </mxCell>
        <mxCell id="uOVFqiCUbd3LchdZvcdI-16" style="edgeStyle=orthogonalEdgeStyle;rounded=0;orthogonalLoop=1;jettySize=auto;html=1;entryX=0;entryY=0.5;entryDx=0;entryDy=0;" parent="1" source="uOVFqiCUbd3LchdZvcdI-12" target="uOVFqiCUbd3LchdZvcdI-15" edge="1">
          <mxGeometry relative="1" as="geometry" />
        </mxCell>
        <mxCell id="uOVFqiCUbd3LchdZvcdI-12" value="loginController.servlet" style="rounded=0;whiteSpace=wrap;html=1;" parent="1" vertex="1">
          <mxGeometry x="401" y="40" width="120" height="60" as="geometry" />
        </mxCell>
        <mxCell id="uOVFqiCUbd3LchdZvcdI-18" value="" style="edgeStyle=orthogonalEdgeStyle;rounded=0;orthogonalLoop=1;jettySize=auto;html=1;" parent="1" source="uOVFqiCUbd3LchdZvcdI-15" target="uOVFqiCUbd3LchdZvcdI-17" edge="1">
          <mxGeometry relative="1" as="geometry" />
        </mxCell>
        <mxCell id="uOVFqiCUbd3LchdZvcdI-35" style="edgeStyle=orthogonalEdgeStyle;rounded=0;orthogonalLoop=1;jettySize=auto;html=1;entryX=0.5;entryY=0;entryDx=0;entryDy=0;" parent="1" source="uOVFqiCUbd3LchdZvcdI-15" target="uOVFqiCUbd3LchdZvcdI-1" edge="1">
          <mxGeometry relative="1" as="geometry">
            <Array as="points">
              <mxPoint x="640" y="20" />
              <mxPoint x="100" y="20" />
            </Array>
          </mxGeometry>
        </mxCell>
        <mxCell id="6oWw2CklcwHcHbkRxfAu-8" style="edgeStyle=orthogonalEdgeStyle;rounded=0;orthogonalLoop=1;jettySize=auto;html=1;entryX=1;entryY=0.5;entryDx=0;entryDy=0;" edge="1" parent="1" source="uOVFqiCUbd3LchdZvcdI-15" target="6oWw2CklcwHcHbkRxfAu-4">
          <mxGeometry relative="1" as="geometry">
            <Array as="points">
              <mxPoint x="660" y="20" />
              <mxPoint x="990" y="20" />
              <mxPoint x="990" y="290" />
            </Array>
          </mxGeometry>
        </mxCell>
        <mxCell id="6oWw2CklcwHcHbkRxfAu-17" style="edgeStyle=orthogonalEdgeStyle;rounded=0;orthogonalLoop=1;jettySize=auto;html=1;entryX=0;entryY=0.75;entryDx=0;entryDy=0;" edge="1" parent="1" source="uOVFqiCUbd3LchdZvcdI-15" target="6oWw2CklcwHcHbkRxfAu-1">
          <mxGeometry relative="1" as="geometry">
            <Array as="points">
              <mxPoint x="640" y="175" />
            </Array>
          </mxGeometry>
        </mxCell>
        <mxCell id="uOVFqiCUbd3LchdZvcdI-15" value="MemberDto.java" style="rounded=0;whiteSpace=wrap;html=1;" parent="1" vertex="1">
          <mxGeometry x="580" y="40" width="120" height="60" as="geometry" />
        </mxCell>
        <mxCell id="uOVFqiCUbd3LchdZvcdI-21" style="edgeStyle=orthogonalEdgeStyle;rounded=0;orthogonalLoop=1;jettySize=auto;html=1;" parent="1" source="uOVFqiCUbd3LchdZvcdI-17" target="uOVFqiCUbd3LchdZvcdI-15" edge="1">
          <mxGeometry relative="1" as="geometry" />
        </mxCell>
        <mxCell id="uOVFqiCUbd3LchdZvcdI-17" value="MemberDao.java" style="rounded=0;whiteSpace=wrap;html=1;" parent="1" vertex="1">
          <mxGeometry x="760" y="40" width="120" height="60" as="geometry" />
        </mxCell>
        <mxCell id="6oWw2CklcwHcHbkRxfAu-18" style="edgeStyle=orthogonalEdgeStyle;rounded=0;orthogonalLoop=1;jettySize=auto;html=1;entryX=0.25;entryY=1;entryDx=0;entryDy=0;" edge="1" parent="1" source="uOVFqiCUbd3LchdZvcdI-26" target="uOVFqiCUbd3LchdZvcdI-15">
          <mxGeometry relative="1" as="geometry">
            <Array as="points">
              <mxPoint x="610" y="290" />
            </Array>
          </mxGeometry>
        </mxCell>
        <mxCell id="uOVFqiCUbd3LchdZvcdI-26" value="registerController&lt;br&gt;.servlet" style="rounded=0;whiteSpace=wrap;html=1;" parent="1" vertex="1">
          <mxGeometry x="40" y="260" width="120" height="60" as="geometry" />
        </mxCell>
        <mxCell id="6oWw2CklcwHcHbkRxfAu-5" style="edgeStyle=orthogonalEdgeStyle;rounded=0;orthogonalLoop=1;jettySize=auto;html=1;entryX=0.5;entryY=0;entryDx=0;entryDy=0;" edge="1" parent="1" source="6oWw2CklcwHcHbkRxfAu-1" target="6oWw2CklcwHcHbkRxfAu-3">
          <mxGeometry relative="1" as="geometry" />
        </mxCell>
        <mxCell id="6oWw2CklcwHcHbkRxfAu-6" style="edgeStyle=orthogonalEdgeStyle;rounded=0;orthogonalLoop=1;jettySize=auto;html=1;entryX=0.5;entryY=0;entryDx=0;entryDy=0;" edge="1" parent="1" source="6oWw2CklcwHcHbkRxfAu-1" target="6oWw2CklcwHcHbkRxfAu-4">
          <mxGeometry relative="1" as="geometry" />
        </mxCell>
        <mxCell id="6oWw2CklcwHcHbkRxfAu-1" value="loginResult.jsp" style="rounded=0;whiteSpace=wrap;html=1;" vertex="1" parent="1">
          <mxGeometry x="760" y="130" width="120" height="60" as="geometry" />
        </mxCell>
        <mxCell id="6oWw2CklcwHcHbkRxfAu-3" value="logout.jsp" style="rounded=0;whiteSpace=wrap;html=1;" vertex="1" parent="1">
          <mxGeometry x="670" y="260" width="120" height="60" as="geometry" />
        </mxCell>
        <mxCell id="6oWw2CklcwHcHbkRxfAu-19" style="edgeStyle=orthogonalEdgeStyle;rounded=0;orthogonalLoop=1;jettySize=auto;html=1;entryX=1;entryY=0.5;entryDx=0;entryDy=0;" edge="1" parent="1" source="6oWw2CklcwHcHbkRxfAu-4" target="uOVFqiCUbd3LchdZvcdI-17">
          <mxGeometry relative="1" as="geometry">
            <Array as="points">
              <mxPoint x="920" y="70" />
            </Array>
          </mxGeometry>
        </mxCell>
        <mxCell id="6oWw2CklcwHcHbkRxfAu-4" value="memberList.jsp" style="rounded=0;whiteSpace=wrap;html=1;" vertex="1" parent="1">
          <mxGeometry x="850" y="260" width="120" height="60" as="geometry" />
        </mxCell>
        <mxCell id="6oWw2CklcwHcHbkRxfAu-9" value="memberList" style="text;html=1;align=center;verticalAlign=middle;resizable=0;points=[];autosize=1;rotation=0;glass=0;fillColor=#fff2cc;strokeColor=#d6b656;" vertex="1" parent="1">
          <mxGeometry x="890" y="150" width="80" height="20" as="geometry" />
        </mxCell>
        <mxCell id="6oWw2CklcwHcHbkRxfAu-10" value="addMember" style="text;html=1;align=center;verticalAlign=middle;resizable=0;points=[];autosize=1;rotation=0;glass=0;fillColor=#fff2cc;strokeColor=#d6b656;" vertex="1" parent="1">
          <mxGeometry x="360" y="-10" width="80" height="20" as="geometry" />
        </mxCell>
        <mxCell id="6oWw2CklcwHcHbkRxfAu-11" value="loginMember" style="text;html=1;align=center;verticalAlign=middle;resizable=0;points=[];autosize=1;rotation=0;glass=0;fillColor=#fff2cc;strokeColor=#d6b656;" vertex="1" parent="1">
          <mxGeometry x="650" y="150" width="90" height="20" as="geometry" />
        </mxCell>
      </root>
    </mxGraphModel>
  </diagram>
</mxfile>
